<?xml version="1.0" encoding="UTF-8" standalone="no"?>
<!DOCTYPE svg PUBLIC "-//W3C//DTD SVG 1.1//EN"
 "http://www.w3.org/Graphics/SVG/1.1/DTD/svg11.dtd">
<!-- Generated by graphviz version 2.47.0 (20210316.0004)
 -->
<!-- Title: dbml Pages: 1 -->
<svg width="1743pt" height="2676pt"
 viewBox="0.00 0.00 1743.12 2675.92" xmlns="http://www.w3.org/2000/svg" xmlns:xlink="http://www.w3.org/1999/xlink">
<g id="graph0" class="graph" transform="scale(1 1) rotate(0) translate(4 2671.92)">
<title>dbml</title>
<!-- Category -->
<g id="Category" class="node">
<title>Category</title>
<ellipse fill="none" stroke="black" stroke-width="0" cx="955.24" cy="-2047.96" rx="263.09" ry="172.57"/>
<polygon fill="#1d71b8" stroke="transparent" points="771.24,-2107.96 771.24,-2167.96 1139.24,-2167.96 1139.24,-2107.96 771.24,-2107.96"/>
<polygon fill="none" stroke="#29235c" points="771.24,-2107.96 771.24,-2167.96 1139.24,-2167.96 1139.24,-2107.96 771.24,-2107.96"/>
<text text-anchor="start" x="828.09" y="-2129.16" font-family="Helvetica,sans-Serif" font-weight="bold" font-size="32.00" fill="#ffffff"> &#160;&#160;&#160;&#160;&#160;&#160;Category &#160;&#160;&#160;&#160;&#160;&#160;</text>
<polygon fill="#e7e2dd" stroke="transparent" points="771.24,-2047.96 771.24,-2107.96 1139.24,-2107.96 1139.24,-2047.96 771.24,-2047.96"/>
<polygon fill="none" stroke="#29235c" points="771.24,-2047.96 771.24,-2107.96 1139.24,-2107.96 1139.24,-2047.96 771.24,-2047.96"/>
<text text-anchor="start" x="782.24" y="-2069.16" font-family="Helvetica,sans-Serif" font-weight="bold" font-size="32.00" fill="#29235c">id</text>
<text text-anchor="start" x="807.13" y="-2069.16" font-family="Helvetica,sans-Serif" font-size="32.00" fill="#29235c"> &#160;&#160;&#160;</text>
<text text-anchor="start" x="986.02" y="-2069.16" font-family="Helvetica,sans-Serif" font-style="italic" font-size="32.00" fill="#29235c">INTEGER</text>
<polygon fill="#e7e2dd" stroke="transparent" points="771.24,-1987.96 771.24,-2047.96 1139.24,-2047.96 1139.24,-1987.96 771.24,-1987.96"/>
<polygon fill="none" stroke="#29235c" points="771.24,-1987.96 771.24,-2047.96 1139.24,-2047.96 1139.24,-1987.96 771.24,-1987.96"/>
<text text-anchor="start" x="782.24" y="-2008.16" font-family="Helvetica,sans-Serif" font-size="32.00" fill="#29235c">name &#160;&#160;&#160;</text>
<text text-anchor="start" x="971.81" y="-2009.16" font-family="Helvetica,sans-Serif" font-style="italic" font-size="32.00" fill="#29235c">VARCHAR</text>
<polygon fill="#e7e2dd" stroke="transparent" points="771.24,-1927.96 771.24,-1987.96 1139.24,-1987.96 1139.24,-1927.96 771.24,-1927.96"/>
<polygon fill="none" stroke="#29235c" points="771.24,-1927.96 771.24,-1987.96 1139.24,-1987.96 1139.24,-1927.96 771.24,-1927.96"/>
<text text-anchor="start" x="782.11" y="-1948.16" font-family="Helvetica,sans-Serif" font-size="32.00" fill="#29235c">description &#160;&#160;&#160;</text>
<text text-anchor="start" x="972.03" y="-1949.16" font-family="Helvetica,sans-Serif" font-style="italic" font-size="32.00" fill="#29235c">VARCHAR</text>
<polygon fill="none" stroke="#29235c" stroke-width="2" points="770.24,-1926.96 770.24,-2168.96 1140.24,-2168.96 1140.24,-1926.96 770.24,-1926.96"/>
</g>
<!-- Customer -->
<g id="Customer" class="node">
<title>Customer</title>
<ellipse fill="none" stroke="black" stroke-width="0" cx="1501.06" cy="-659.96" rx="234.1" ry="299.63"/>
<polygon fill="#1d71b8" stroke="transparent" points="1338.06,-809.96 1338.06,-869.96 1665.06,-869.96 1665.06,-809.96 1338.06,-809.96"/>
<polygon fill="none" stroke="#29235c" points="1338.06,-809.96 1338.06,-869.96 1665.06,-869.96 1665.06,-809.96 1338.06,-809.96"/>
<text text-anchor="start" x="1369.98" y="-831.16" font-family="Helvetica,sans-Serif" font-weight="bold" font-size="32.00" fill="#ffffff"> &#160;&#160;&#160;&#160;&#160;&#160;Customer &#160;&#160;&#160;&#160;&#160;&#160;</text>
<polygon fill="#e7e2dd" stroke="transparent" points="1338.06,-749.96 1338.06,-809.96 1665.06,-809.96 1665.06,-749.96 1338.06,-749.96"/>
<polygon fill="none" stroke="#29235c" points="1338.06,-749.96 1338.06,-809.96 1665.06,-809.96 1665.06,-749.96 1338.06,-749.96"/>
<text text-anchor="start" x="1349.06" y="-771.16" font-family="Helvetica,sans-Serif" font-weight="bold" font-size="32.00" fill="#29235c">id</text>
<text text-anchor="start" x="1373.95" y="-771.16" font-family="Helvetica,sans-Serif" font-size="32.00" fill="#29235c"> &#160;&#160;&#160;</text>
<text text-anchor="start" x="1511.85" y="-771.16" font-family="Helvetica,sans-Serif" font-style="italic" font-size="32.00" fill="#29235c">INTEGER</text>
<polygon fill="#e7e2dd" stroke="transparent" points="1338.06,-689.96 1338.06,-749.96 1665.06,-749.96 1665.06,-689.96 1338.06,-689.96"/>
<polygon fill="none" stroke="#29235c" points="1338.06,-689.96 1338.06,-749.96 1665.06,-749.96 1665.06,-689.96 1338.06,-689.96"/>
<text text-anchor="start" x="1349.06" y="-710.16" font-family="Helvetica,sans-Serif" font-size="32.00" fill="#29235c">name &#160;&#160;&#160;</text>
<text text-anchor="start" x="1497.64" y="-711.16" font-family="Helvetica,sans-Serif" font-style="italic" font-size="32.00" fill="#29235c">VARCHAR</text>
<polygon fill="#e7e2dd" stroke="transparent" points="1338.06,-629.96 1338.06,-689.96 1665.06,-689.96 1665.06,-629.96 1338.06,-629.96"/>
<polygon fill="none" stroke="#29235c" points="1338.06,-629.96 1338.06,-689.96 1665.06,-689.96 1665.06,-629.96 1338.06,-629.96"/>
<text text-anchor="start" x="1349.06" y="-650.16" font-family="Helvetica,sans-Serif" font-size="32.00" fill="#29235c">email &#160;&#160;&#160;</text>
<text text-anchor="start" x="1497.64" y="-651.16" font-family="Helvetica,sans-Serif" font-style="italic" font-size="32.00" fill="#29235c">VARCHAR</text>
<polygon fill="#e7e2dd" stroke="transparent" points="1338.06,-569.96 1338.06,-629.96 1665.06,-629.96 1665.06,-569.96 1338.06,-569.96"/>
<polygon fill="none" stroke="#29235c" points="1338.06,-569.96 1338.06,-629.96 1665.06,-629.96 1665.06,-569.96 1338.06,-569.96"/>
<text text-anchor="start" x="1349.06" y="-590.16" font-family="Helvetica,sans-Serif" font-size="32.00" fill="#29235c">phone &#160;&#160;&#160;</text>
<text text-anchor="start" x="1497.64" y="-591.16" font-family="Helvetica,sans-Serif" font-style="italic" font-size="32.00" fill="#29235c">VARCHAR</text>
<polygon fill="#e7e2dd" stroke="transparent" points="1338.06,-509.96 1338.06,-569.96 1665.06,-569.96 1665.06,-509.96 1338.06,-509.96"/>
<polygon fill="none" stroke="#29235c" points="1338.06,-509.96 1338.06,-569.96 1665.06,-569.96 1665.06,-509.96 1338.06,-509.96"/>
<text text-anchor="start" x="1348.87" y="-530.16" font-family="Helvetica,sans-Serif" font-size="32.00" fill="#29235c">address &#160;&#160;&#160;</text>
<text text-anchor="start" x="1497.85" y="-531.16" font-family="Helvetica,sans-Serif" font-style="italic" font-size="32.00" fill="#29235c">VARCHAR</text>
<polygon fill="#e7e2dd" stroke="transparent" points="1338.06,-449.96 1338.06,-509.96 1665.06,-509.96 1665.06,-449.96 1338.06,-449.96"/>
<polygon fill="none" stroke="#29235c" points="1338.06,-449.96 1338.06,-509.96 1665.06,-509.96 1665.06,-449.96 1338.06,-449.96"/>
<text text-anchor="start" x="1349.06" y="-470.16" font-family="Helvetica,sans-Serif" font-size="32.00" fill="#29235c">credit_limit &#160;&#160;&#160;</text>
<text text-anchor="start" x="1550.94" y="-471.16" font-family="Helvetica,sans-Serif" font-style="italic" font-size="32.00" fill="#29235c">FLOAT</text>
<polygon fill="none" stroke="#29235c" stroke-width="2" points="1336.56,-448.96 1336.56,-870.96 1665.56,-870.96 1665.56,-448.96 1336.56,-448.96"/>
</g>
<!-- Employee -->
<g id="Employee" class="node">
<title>Employee</title>
<ellipse fill="none" stroke="black" stroke-width="0" cx="321.73" cy="-2452.96" rx="258.6" ry="214.92"/>
<polygon fill="#1d71b8" stroke="transparent" points="140.73,-2542.96 140.73,-2602.96 502.73,-2602.96 502.73,-2542.96 140.73,-2542.96"/>
<polygon fill="none" stroke="#29235c" points="140.73,-2542.96 140.73,-2602.96 502.73,-2602.96 502.73,-2542.96 140.73,-2542.96"/>
<text text-anchor="start" x="188.36" y="-2564.16" font-family="Helvetica,sans-Serif" font-weight="bold" font-size="32.00" fill="#ffffff"> &#160;&#160;&#160;&#160;&#160;&#160;Employee &#160;&#160;&#160;&#160;&#160;&#160;</text>
<polygon fill="#e7e2dd" stroke="transparent" points="140.73,-2482.96 140.73,-2542.96 502.73,-2542.96 502.73,-2482.96 140.73,-2482.96"/>
<polygon fill="none" stroke="#29235c" points="140.73,-2482.96 140.73,-2542.96 502.73,-2542.96 502.73,-2482.96 140.73,-2482.96"/>
<text text-anchor="start" x="151.73" y="-2504.16" font-family="Helvetica,sans-Serif" font-weight="bold" font-size="32.00" fill="#29235c">id</text>
<text text-anchor="start" x="176.62" y="-2504.16" font-family="Helvetica,sans-Serif" font-size="32.00" fill="#29235c"> &#160;&#160;&#160;</text>
<text text-anchor="start" x="349.52" y="-2504.16" font-family="Helvetica,sans-Serif" font-style="italic" font-size="32.00" fill="#29235c">INTEGER</text>
<polygon fill="#e7e2dd" stroke="transparent" points="140.73,-2422.96 140.73,-2482.96 502.73,-2482.96 502.73,-2422.96 140.73,-2422.96"/>
<polygon fill="none" stroke="#29235c" points="140.73,-2422.96 140.73,-2482.96 502.73,-2482.96 502.73,-2422.96 140.73,-2422.96"/>
<text text-anchor="start" x="151.27" y="-2443.16" font-family="Helvetica,sans-Serif" font-size="32.00" fill="#29235c">first_name &#160;&#160;&#160;</text>
<text text-anchor="start" x="335.52" y="-2444.16" font-family="Helvetica,sans-Serif" font-style="italic" font-size="32.00" fill="#29235c">VARCHAR</text>
<polygon fill="#e7e2dd" stroke="transparent" points="140.73,-2362.96 140.73,-2422.96 502.73,-2422.96 502.73,-2362.96 140.73,-2362.96"/>
<polygon fill="none" stroke="#29235c" points="140.73,-2362.96 140.73,-2422.96 502.73,-2422.96 502.73,-2362.96 140.73,-2362.96"/>
<text text-anchor="start" x="151.73" y="-2383.16" font-family="Helvetica,sans-Serif" font-size="32.00" fill="#29235c">last_name &#160;&#160;&#160;</text>
<text text-anchor="start" x="335.52" y="-2384.16" font-family="Helvetica,sans-Serif" font-style="italic" font-size="32.00" fill="#29235c">VARCHAR</text>
<polygon fill="#e7e2dd" stroke="transparent" points="140.73,-2302.96 140.73,-2362.96 502.73,-2362.96 502.73,-2302.96 140.73,-2302.96"/>
<polygon fill="none" stroke="#29235c" points="140.73,-2302.96 140.73,-2362.96 502.73,-2362.96 502.73,-2302.96 140.73,-2302.96"/>
<text text-anchor="start" x="151.73" y="-2323.16" font-family="Helvetica,sans-Serif" font-size="32.00" fill="#29235c">title &#160;&#160;&#160;</text>
<text text-anchor="start" x="335.31" y="-2324.16" font-family="Helvetica,sans-Serif" font-style="italic" font-size="32.00" fill="#29235c">VARCHAR</text>
<polygon fill="none" stroke="#29235c" stroke-width="2" points="139.73,-2301.96 139.73,-2603.96 503.73,-2603.96 503.73,-2301.96 139.73,-2301.96"/>
</g>
<!-- Inventory -->
<g id="Inventory" class="node">
<title>Inventory</title>
<ellipse fill="none" stroke="black" stroke-width="0" cx="321.73" cy="-1642.96" rx="248.8" ry="214.92"/>
<polygon fill="#1d71b8" stroke="transparent" points="147.73,-1732.96 147.73,-1792.96 495.73,-1792.96 495.73,-1732.96 147.73,-1732.96"/>
<polygon fill="none" stroke="#29235c" points="147.73,-1732.96 147.73,-1792.96 495.73,-1792.96 495.73,-1732.96 147.73,-1732.96"/>
<text text-anchor="start" x="193.69" y="-1754.16" font-family="Helvetica,sans-Serif" font-weight="bold" font-size="32.00" fill="#ffffff"> &#160;&#160;&#160;&#160;&#160;&#160;Inventory &#160;&#160;&#160;&#160;&#160;&#160;</text>
<polygon fill="#e7e2dd" stroke="transparent" points="147.73,-1672.96 147.73,-1732.96 495.73,-1732.96 495.73,-1672.96 147.73,-1672.96"/>
<polygon fill="none" stroke="#29235c" points="147.73,-1672.96 147.73,-1732.96 495.73,-1732.96 495.73,-1672.96 147.73,-1672.96"/>
<text text-anchor="start" x="158.73" y="-1694.16" font-family="Helvetica,sans-Serif" font-weight="bold" font-size="32.00" fill="#29235c">id</text>
<text text-anchor="start" x="183.62" y="-1694.16" font-family="Helvetica,sans-Serif" font-size="32.00" fill="#29235c"> &#160;&#160;&#160;</text>
<text text-anchor="start" x="342.52" y="-1694.16" font-family="Helvetica,sans-Serif" font-style="italic" font-size="32.00" fill="#29235c">INTEGER</text>
<polygon fill="#e7e2dd" stroke="transparent" points="147.73,-1612.96 147.73,-1672.96 495.73,-1672.96 495.73,-1612.96 147.73,-1612.96"/>
<polygon fill="none" stroke="#29235c" points="147.73,-1612.96 147.73,-1672.96 495.73,-1672.96 495.73,-1612.96 147.73,-1612.96"/>
<text text-anchor="start" x="158.73" y="-1633.16" font-family="Helvetica,sans-Serif" font-size="32.00" fill="#29235c">store_id &#160;&#160;&#160;</text>
<text text-anchor="start" x="342.52" y="-1634.16" font-family="Helvetica,sans-Serif" font-style="italic" font-size="32.00" fill="#29235c">INTEGER</text>
<polygon fill="#e7e2dd" stroke="transparent" points="147.73,-1552.96 147.73,-1612.96 495.73,-1612.96 495.73,-1552.96 147.73,-1552.96"/>
<polygon fill="none" stroke="#29235c" points="147.73,-1552.96 147.73,-1612.96 495.73,-1612.96 495.73,-1552.96 147.73,-1552.96"/>
<text text-anchor="start" x="158.26" y="-1573.16" font-family="Helvetica,sans-Serif" font-size="32.00" fill="#29235c">product_id &#160;&#160;&#160;</text>
<text text-anchor="start" x="342.62" y="-1574.16" font-family="Helvetica,sans-Serif" font-style="italic" font-size="32.00" fill="#29235c">INTEGER</text>
<polygon fill="#e7e2dd" stroke="transparent" points="147.73,-1492.96 147.73,-1552.96 495.73,-1552.96 495.73,-1492.96 147.73,-1492.96"/>
<polygon fill="none" stroke="#29235c" points="147.73,-1492.96 147.73,-1552.96 495.73,-1552.96 495.73,-1492.96 147.73,-1492.96"/>
<text text-anchor="start" x="158.73" y="-1513.16" font-family="Helvetica,sans-Serif" font-size="32.00" fill="#29235c">quantity &#160;&#160;&#160;</text>
<text text-anchor="start" x="342.52" y="-1514.16" font-family="Helvetica,sans-Serif" font-style="italic" font-size="32.00" fill="#29235c">INTEGER</text>
<polygon fill="none" stroke="#29235c" stroke-width="2" points="146.73,-1491.96 146.73,-1793.96 496.73,-1793.96 496.73,-1491.96 146.73,-1491.96"/>
</g>
<!-- Product -->
<g id="Product" class="node">
<title>Product</title>
<ellipse fill="none" stroke="black" stroke-width="0" cx="955.24" cy="-1224.96" rx="263.09" ry="214.92"/>
<polygon fill="#1d71b8" stroke="transparent" points="771.24,-1314.96 771.24,-1374.96 1139.24,-1374.96 1139.24,-1314.96 771.24,-1314.96"/>
<polygon fill="none" stroke="#29235c" points="771.24,-1314.96 771.24,-1374.96 1139.24,-1374.96 1139.24,-1314.96 771.24,-1314.96"/>
<text text-anchor="start" x="837.86" y="-1336.16" font-family="Helvetica,sans-Serif" font-weight="bold" font-size="32.00" fill="#ffffff"> &#160;&#160;&#160;&#160;&#160;&#160;Product &#160;&#160;&#160;&#160;&#160;&#160;</text>
<polygon fill="#e7e2dd" stroke="transparent" points="771.24,-1254.96 771.24,-1314.96 1139.24,-1314.96 1139.24,-1254.96 771.24,-1254.96"/>
<polygon fill="none" stroke="#29235c" points="771.24,-1254.96 771.24,-1314.96 1139.24,-1314.96 1139.24,-1254.96 771.24,-1254.96"/>
<text text-anchor="start" x="782.24" y="-1276.16" font-family="Helvetica,sans-Serif" font-weight="bold" font-size="32.00" fill="#29235c">id</text>
<text text-anchor="start" x="807.13" y="-1276.16" font-family="Helvetica,sans-Serif" font-size="32.00" fill="#29235c"> &#160;&#160;&#160;</text>
<text text-anchor="start" x="986.02" y="-1276.16" font-family="Helvetica,sans-Serif" font-style="italic" font-size="32.00" fill="#29235c">INTEGER</text>
<polygon fill="#e7e2dd" stroke="transparent" points="771.24,-1194.96 771.24,-1254.96 1139.24,-1254.96 1139.24,-1194.96 771.24,-1194.96"/>
<polygon fill="none" stroke="#29235c" points="771.24,-1194.96 771.24,-1254.96 1139.24,-1254.96 1139.24,-1194.96 771.24,-1194.96"/>
<text text-anchor="start" x="782.24" y="-1215.16" font-family="Helvetica,sans-Serif" font-size="32.00" fill="#29235c">name &#160;&#160;&#160;</text>
<text text-anchor="start" x="971.81" y="-1216.16" font-family="Helvetica,sans-Serif" font-style="italic" font-size="32.00" fill="#29235c">VARCHAR</text>
<polygon fill="#e7e2dd" stroke="transparent" points="771.24,-1134.96 771.24,-1194.96 1139.24,-1194.96 1139.24,-1134.96 771.24,-1134.96"/>
<polygon fill="none" stroke="#29235c" points="771.24,-1134.96 771.24,-1194.96 1139.24,-1194.96 1139.24,-1134.96 771.24,-1134.96"/>
<text text-anchor="start" x="782.11" y="-1155.16" font-family="Helvetica,sans-Serif" font-size="32.00" fill="#29235c">description &#160;&#160;&#160;</text>
<text text-anchor="start" x="972.03" y="-1156.16" font-family="Helvetica,sans-Serif" font-style="italic" font-size="32.00" fill="#29235c">VARCHAR</text>
<polygon fill="#e7e2dd" stroke="transparent" points="771.24,-1074.96 771.24,-1134.96 1139.24,-1134.96 1139.24,-1074.96 771.24,-1074.96"/>
<polygon fill="none" stroke="#29235c" points="771.24,-1074.96 771.24,-1134.96 1139.24,-1134.96 1139.24,-1074.96 771.24,-1074.96"/>
<text text-anchor="start" x="782.24" y="-1095.16" font-family="Helvetica,sans-Serif" font-size="32.00" fill="#29235c">price &#160;&#160;&#160;</text>
<text text-anchor="start" x="1025.12" y="-1096.16" font-family="Helvetica,sans-Serif" font-style="italic" font-size="32.00" fill="#29235c">FLOAT</text>
<polygon fill="none" stroke="#29235c" stroke-width="2" points="770.24,-1073.96 770.24,-1375.96 1140.24,-1375.96 1140.24,-1073.96 770.24,-1073.96"/>
</g>
<!-- Inventory&#45;&gt;Product -->
<!-- Inventory&#45;&gt;Product -->
<g id="edge2" class="edge">
<title>Inventory:e&#45;&gt;Product:w</title>
<path fill="none" stroke="#29235c" stroke-width="3" d="M496.73,-1582.96C538.96,-1582.96 703.57,-1319.95 760.61,-1288.11"/>
<polygon fill="#29235c" stroke="#29235c" stroke-width="3" points="761.82,-1291.39 770.24,-1284.96 759.65,-1284.74 761.82,-1291.39"/>
<text text-anchor="middle" x="776.46" y="-1294.56" font-family="Helvetica,sans-Serif" font-size="32.00" fill="#29235c">*</text>
<text text-anchor="middle" x="487.84" y="-1592.56" font-family="Helvetica,sans-Serif" font-size="32.00" fill="#29235c">1</text>
</g>
<!-- Store -->
<g id="Store" class="node">
<title>Store</title>
<ellipse fill="none" stroke="black" stroke-width="0" cx="955.24" cy="-1672.96" rx="231.45" ry="172.57"/>
<polygon fill="#1d71b8" stroke="transparent" points="794.24,-1732.96 794.24,-1792.96 1117.24,-1792.96 1117.24,-1732.96 794.24,-1732.96"/>
<polygon fill="none" stroke="#29235c" points="794.24,-1732.96 794.24,-1792.96 1117.24,-1792.96 1117.24,-1732.96 794.24,-1732.96"/>
<text text-anchor="start" x="855.26" y="-1754.16" font-family="Helvetica,sans-Serif" font-weight="bold" font-size="32.00" fill="#ffffff"> &#160;&#160;&#160;&#160;&#160;&#160;Store &#160;&#160;&#160;&#160;&#160;&#160;</text>
<polygon fill="#e7e2dd" stroke="transparent" points="794.24,-1672.96 794.24,-1732.96 1117.24,-1732.96 1117.24,-1672.96 794.24,-1672.96"/>
<polygon fill="none" stroke="#29235c" points="794.24,-1672.96 794.24,-1732.96 1117.24,-1732.96 1117.24,-1672.96 794.24,-1672.96"/>
<text text-anchor="start" x="805.24" y="-1694.16" font-family="Helvetica,sans-Serif" font-weight="bold" font-size="32.00" fill="#29235c">id</text>
<text text-anchor="start" x="830.13" y="-1694.16" font-family="Helvetica,sans-Serif" font-size="32.00" fill="#29235c"> &#160;&#160;&#160;</text>
<text text-anchor="start" x="964.02" y="-1694.16" font-family="Helvetica,sans-Serif" font-style="italic" font-size="32.00" fill="#29235c">INTEGER</text>
<polygon fill="#e7e2dd" stroke="transparent" points="794.24,-1612.96 794.24,-1672.96 1117.24,-1672.96 1117.24,-1612.96 794.24,-1612.96"/>
<polygon fill="none" stroke="#29235c" points="794.24,-1612.96 794.24,-1672.96 1117.24,-1672.96 1117.24,-1612.96 794.24,-1612.96"/>
<text text-anchor="start" x="805.24" y="-1633.16" font-family="Helvetica,sans-Serif" font-size="32.00" fill="#29235c">name &#160;&#160;&#160;</text>
<text text-anchor="start" x="949.81" y="-1634.16" font-family="Helvetica,sans-Serif" font-style="italic" font-size="32.00" fill="#29235c">VARCHAR</text>
<polygon fill="#e7e2dd" stroke="transparent" points="794.24,-1552.96 794.24,-1612.96 1117.24,-1612.96 1117.24,-1552.96 794.24,-1552.96"/>
<polygon fill="none" stroke="#29235c" points="794.24,-1552.96 794.24,-1612.96 1117.24,-1612.96 1117.24,-1552.96 794.24,-1552.96"/>
<text text-anchor="start" x="804.83" y="-1573.16" font-family="Helvetica,sans-Serif" font-size="32.00" fill="#29235c">location &#160;&#160;&#160;</text>
<text text-anchor="start" x="950.03" y="-1574.16" font-family="Helvetica,sans-Serif" font-style="italic" font-size="32.00" fill="#29235c">VARCHAR</text>
<polygon fill="none" stroke="#29235c" stroke-width="2" points="792.74,-1551.96 792.74,-1793.96 1117.74,-1793.96 1117.74,-1551.96 792.74,-1551.96"/>
</g>
<!-- Inventory&#45;&gt;Store -->
<!-- Inventory&#45;&gt;Store -->
<g id="edge4" class="edge">
<title>Inventory:e&#45;&gt;Store:w</title>
<path fill="none" stroke="#29235c" stroke-width="3" d="M496.73,-1642.96C627.77,-1642.96 657.32,-1699.95 783.2,-1702.85"/>
<polygon fill="#29235c" stroke="#29235c" stroke-width="3" points="783.2,-1706.35 793.24,-1702.96 783.28,-1699.35 783.2,-1706.35"/>
<text text-anchor="middle" x="799.46" y="-1712.56" font-family="Helvetica,sans-Serif" font-size="32.00" fill="#29235c">*</text>
<text text-anchor="middle" x="487.84" y="-1652.56" font-family="Helvetica,sans-Serif" font-size="32.00" fill="#29235c">1</text>
</g>
<!-- Item -->
<g id="Item" class="node">
<title>Item</title>
<ellipse fill="none" stroke="black" stroke-width="0" cx="321.73" cy="-1152.96" rx="248.8" ry="257.27"/>
<polygon fill="#1d71b8" stroke="transparent" points="147.73,-1272.96 147.73,-1332.96 495.73,-1332.96 495.73,-1272.96 147.73,-1272.96"/>
<polygon fill="none" stroke="#29235c" points="147.73,-1272.96 147.73,-1332.96 495.73,-1332.96 495.73,-1272.96 147.73,-1272.96"/>
<text text-anchor="start" x="228.37" y="-1294.16" font-family="Helvetica,sans-Serif" font-weight="bold" font-size="32.00" fill="#ffffff"> &#160;&#160;&#160;&#160;&#160;&#160;Item &#160;&#160;&#160;&#160;&#160;&#160;</text>
<polygon fill="#e7e2dd" stroke="transparent" points="147.73,-1212.96 147.73,-1272.96 495.73,-1272.96 495.73,-1212.96 147.73,-1212.96"/>
<polygon fill="none" stroke="#29235c" points="147.73,-1212.96 147.73,-1272.96 495.73,-1272.96 495.73,-1212.96 147.73,-1212.96"/>
<text text-anchor="start" x="158.73" y="-1234.16" font-family="Helvetica,sans-Serif" font-weight="bold" font-size="32.00" fill="#29235c">id</text>
<text text-anchor="start" x="183.62" y="-1234.16" font-family="Helvetica,sans-Serif" font-size="32.00" fill="#29235c"> &#160;&#160;&#160;</text>
<text text-anchor="start" x="342.52" y="-1234.16" font-family="Helvetica,sans-Serif" font-style="italic" font-size="32.00" fill="#29235c">INTEGER</text>
<polygon fill="#e7e2dd" stroke="transparent" points="147.73,-1152.96 147.73,-1212.96 495.73,-1212.96 495.73,-1152.96 147.73,-1152.96"/>
<polygon fill="none" stroke="#29235c" points="147.73,-1152.96 147.73,-1212.96 495.73,-1212.96 495.73,-1152.96 147.73,-1152.96"/>
<text text-anchor="start" x="158.73" y="-1173.16" font-family="Helvetica,sans-Serif" font-size="32.00" fill="#29235c">order_id &#160;&#160;&#160;</text>
<text text-anchor="start" x="342.52" y="-1174.16" font-family="Helvetica,sans-Serif" font-style="italic" font-size="32.00" fill="#29235c">INTEGER</text>
<polygon fill="#e7e2dd" stroke="transparent" points="147.73,-1092.96 147.73,-1152.96 495.73,-1152.96 495.73,-1092.96 147.73,-1092.96"/>
<polygon fill="none" stroke="#29235c" points="147.73,-1092.96 147.73,-1152.96 495.73,-1152.96 495.73,-1092.96 147.73,-1092.96"/>
<text text-anchor="start" x="158.26" y="-1113.16" font-family="Helvetica,sans-Serif" font-size="32.00" fill="#29235c">product_id &#160;&#160;&#160;</text>
<text text-anchor="start" x="342.62" y="-1114.16" font-family="Helvetica,sans-Serif" font-style="italic" font-size="32.00" fill="#29235c">INTEGER</text>
<polygon fill="#e7e2dd" stroke="transparent" points="147.73,-1032.96 147.73,-1092.96 495.73,-1092.96 495.73,-1032.96 147.73,-1032.96"/>
<polygon fill="none" stroke="#29235c" points="147.73,-1032.96 147.73,-1092.96 495.73,-1092.96 495.73,-1032.96 147.73,-1032.96"/>
<text text-anchor="start" x="158.73" y="-1053.16" font-family="Helvetica,sans-Serif" font-size="32.00" fill="#29235c">quantity &#160;&#160;&#160;</text>
<text text-anchor="start" x="342.52" y="-1054.16" font-family="Helvetica,sans-Serif" font-style="italic" font-size="32.00" fill="#29235c">INTEGER</text>
<polygon fill="#e7e2dd" stroke="transparent" points="147.73,-972.96 147.73,-1032.96 495.73,-1032.96 495.73,-972.96 147.73,-972.96"/>
<polygon fill="none" stroke="#29235c" points="147.73,-972.96 147.73,-1032.96 495.73,-1032.96 495.73,-972.96 147.73,-972.96"/>
<text text-anchor="start" x="158.73" y="-993.16" font-family="Helvetica,sans-Serif" font-size="32.00" fill="#29235c">unit_price &#160;&#160;&#160;</text>
<text text-anchor="start" x="381.61" y="-994.16" font-family="Helvetica,sans-Serif" font-style="italic" font-size="32.00" fill="#29235c">FLOAT</text>
<polygon fill="none" stroke="#29235c" stroke-width="2" points="146.73,-971.96 146.73,-1333.96 496.73,-1333.96 496.73,-971.96 146.73,-971.96"/>
</g>
<!-- Item&#45;&gt;Product -->
<!-- Item&#45;&gt;Product -->
<g id="edge8" class="edge">
<title>Item:e&#45;&gt;Product:w</title>
<path fill="none" stroke="#29235c" stroke-width="3" d="M496.73,-1122.96C634.57,-1122.96 629.31,-1277.15 760.16,-1284.68"/>
<polygon fill="#29235c" stroke="#29235c" stroke-width="3" points="760.14,-1288.18 770.24,-1284.96 760.34,-1281.18 760.14,-1288.18"/>
<text text-anchor="middle" x="776.46" y="-1256.16" font-family="Helvetica,sans-Serif" font-size="32.00" fill="#29235c">*</text>
<text text-anchor="middle" x="487.84" y="-1132.56" font-family="Helvetica,sans-Serif" font-size="32.00" fill="#29235c">1</text>
</g>
<!-- Order -->
<g id="Order" class="node">
<title>Order</title>
<ellipse fill="none" stroke="black" stroke-width="0" cx="955.24" cy="-719.96" rx="266.66" ry="214.92"/>
<polygon fill="#1d71b8" stroke="transparent" points="769.24,-809.96 769.24,-869.96 1142.24,-869.96 1142.24,-809.96 769.24,-809.96"/>
<polygon fill="none" stroke="#29235c" points="769.24,-809.96 769.24,-869.96 1142.24,-869.96 1142.24,-809.96 769.24,-809.96"/>
<text text-anchor="start" x="852.6" y="-831.16" font-family="Helvetica,sans-Serif" font-weight="bold" font-size="32.00" fill="#ffffff"> &#160;&#160;&#160;&#160;&#160;&#160;Order &#160;&#160;&#160;&#160;&#160;&#160;</text>
<polygon fill="#e7e2dd" stroke="transparent" points="769.24,-749.96 769.24,-809.96 1142.24,-809.96 1142.24,-749.96 769.24,-749.96"/>
<polygon fill="none" stroke="#29235c" points="769.24,-749.96 769.24,-809.96 1142.24,-809.96 1142.24,-749.96 769.24,-749.96"/>
<text text-anchor="start" x="780.24" y="-771.16" font-family="Helvetica,sans-Serif" font-weight="bold" font-size="32.00" fill="#29235c">id</text>
<text text-anchor="start" x="805.13" y="-771.16" font-family="Helvetica,sans-Serif" font-size="32.00" fill="#29235c"> &#160;&#160;&#160;</text>
<text text-anchor="start" x="989.02" y="-771.16" font-family="Helvetica,sans-Serif" font-style="italic" font-size="32.00" fill="#29235c">INTEGER</text>
<polygon fill="#e7e2dd" stroke="transparent" points="769.24,-689.96 769.24,-749.96 1142.24,-749.96 1142.24,-689.96 769.24,-689.96"/>
<polygon fill="none" stroke="#29235c" points="769.24,-689.96 769.24,-749.96 1142.24,-749.96 1142.24,-689.96 769.24,-689.96"/>
<text text-anchor="start" x="779.83" y="-710.16" font-family="Helvetica,sans-Serif" font-size="32.00" fill="#29235c">customer_id &#160;&#160;&#160;</text>
<text text-anchor="start" x="989.13" y="-711.16" font-family="Helvetica,sans-Serif" font-style="italic" font-size="32.00" fill="#29235c">INTEGER</text>
<polygon fill="#e7e2dd" stroke="transparent" points="769.24,-629.96 769.24,-689.96 1142.24,-689.96 1142.24,-629.96 769.24,-629.96"/>
<polygon fill="none" stroke="#29235c" points="769.24,-629.96 769.24,-689.96 1142.24,-689.96 1142.24,-629.96 769.24,-629.96"/>
<text text-anchor="start" x="780.09" y="-650.16" font-family="Helvetica,sans-Serif" font-size="32.00" fill="#29235c">order_date &#160;&#160;&#160;</text>
<text text-anchor="start" x="969.86" y="-651.16" font-family="Helvetica,sans-Serif" font-style="italic" font-size="32.00" fill="#29235c">DATETIME</text>
<polygon fill="#e7e2dd" stroke="transparent" points="769.24,-569.96 769.24,-629.96 1142.24,-629.96 1142.24,-569.96 769.24,-569.96"/>
<polygon fill="none" stroke="#29235c" points="769.24,-569.96 769.24,-629.96 1142.24,-629.96 1142.24,-569.96 769.24,-569.96"/>
<text text-anchor="start" x="780.24" y="-590.16" font-family="Helvetica,sans-Serif" font-size="32.00" fill="#29235c">notes &#160;&#160;&#160;</text>
<text text-anchor="start" x="974.81" y="-591.16" font-family="Helvetica,sans-Serif" font-style="italic" font-size="32.00" fill="#29235c">VARCHAR</text>
<polygon fill="none" stroke="#29235c" stroke-width="2" points="767.74,-568.96 767.74,-870.96 1142.74,-870.96 1142.74,-568.96 767.74,-568.96"/>
</g>
<!-- Item&#45;&gt;Order -->
<!-- Item&#45;&gt;Order -->
<g id="edge6" class="edge">
<title>Item:e&#45;&gt;Order:w</title>
<path fill="none" stroke="#29235c" stroke-width="3" d="M496.73,-1182.96C709.22,-1182.96 557.34,-792.84 758.09,-780.27"/>
<polygon fill="#29235c" stroke="#29235c" stroke-width="3" points="758.35,-783.76 768.24,-779.96 758.14,-776.77 758.35,-783.76"/>
<text text-anchor="middle" x="774.46" y="-789.56" font-family="Helvetica,sans-Serif" font-size="32.00" fill="#29235c">*</text>
<text text-anchor="middle" x="487.84" y="-1192.56" font-family="Helvetica,sans-Serif" font-size="32.00" fill="#29235c">1</text>
</g>
<!-- Order&#45;&gt;Customer -->
<!-- Order&#45;&gt;Customer -->
<g id="edge10" class="edge">
<title>Order:e&#45;&gt;Customer:w</title>
<path fill="none" stroke="#29235c" stroke-width="3" d="M1143.24,-719.96C1229.89,-719.96 1245.72,-775.36 1326.84,-779.69"/>
<polygon fill="#29235c" stroke="#29235c" stroke-width="3" points="1326.97,-783.2 1337.06,-779.96 1327.16,-776.2 1326.97,-783.2"/>
<text text-anchor="middle" x="1330.84" y="-789.56" font-family="Helvetica,sans-Serif" font-size="32.00" fill="#29235c">*</text>
<text text-anchor="middle" x="1152.13" y="-729.56" font-family="Helvetica,sans-Serif" font-size="32.00" fill="#29235c">1</text>
</g>
<!-- ProductCategory -->
<g id="ProductCategory" class="node">
<title>ProductCategory</title>
<ellipse fill="none" stroke="black" stroke-width="0" cx="321.73" cy="-2047.96" rx="275.54" ry="172.57"/>
<polygon fill="#1d71b8" stroke="transparent" points="128.73,-2107.96 128.73,-2167.96 514.73,-2167.96 514.73,-2107.96 128.73,-2107.96"/>
<polygon fill="none" stroke="#29235c" points="128.73,-2107.96 128.73,-2167.96 514.73,-2167.96 514.73,-2107.96 128.73,-2107.96"/>
<text text-anchor="start" x="139.46" y="-2129.16" font-family="Helvetica,sans-Serif" font-weight="bold" font-size="32.00" fill="#ffffff"> &#160;&#160;&#160;&#160;&#160;&#160;ProductCategory &#160;&#160;&#160;&#160;&#160;&#160;</text>
<polygon fill="#e7e2dd" stroke="transparent" points="128.73,-2047.96 128.73,-2107.96 514.73,-2107.96 514.73,-2047.96 128.73,-2047.96"/>
<polygon fill="none" stroke="#29235c" points="128.73,-2047.96 128.73,-2107.96 514.73,-2107.96 514.73,-2047.96 128.73,-2047.96"/>
<text text-anchor="start" x="139.73" y="-2069.16" font-family="Helvetica,sans-Serif" font-weight="bold" font-size="32.00" fill="#29235c">id</text>
<text text-anchor="start" x="164.62" y="-2069.16" font-family="Helvetica,sans-Serif" font-size="32.00" fill="#29235c"> &#160;&#160;&#160;</text>
<text text-anchor="start" x="361.52" y="-2069.16" font-family="Helvetica,sans-Serif" font-style="italic" font-size="32.00" fill="#29235c">INTEGER</text>
<polygon fill="#e7e2dd" stroke="transparent" points="128.73,-1987.96 128.73,-2047.96 514.73,-2047.96 514.73,-1987.96 128.73,-1987.96"/>
<polygon fill="none" stroke="#29235c" points="128.73,-1987.96 128.73,-2047.96 514.73,-2047.96 514.73,-1987.96 128.73,-1987.96"/>
<text text-anchor="start" x="139.73" y="-2008.16" font-family="Helvetica,sans-Serif" font-size="32.00" fill="#29235c">product_id &#160;&#160;&#160;</text>
<text text-anchor="start" x="361.52" y="-2009.16" font-family="Helvetica,sans-Serif" font-style="italic" font-size="32.00" fill="#29235c">INTEGER</text>
<polygon fill="#e7e2dd" stroke="transparent" points="128.73,-1927.96 128.73,-1987.96 514.73,-1987.96 514.73,-1927.96 128.73,-1927.96"/>
<polygon fill="none" stroke="#29235c" points="128.73,-1927.96 128.73,-1987.96 514.73,-1987.96 514.73,-1927.96 128.73,-1927.96"/>
<text text-anchor="start" x="139.73" y="-1948.16" font-family="Helvetica,sans-Serif" font-size="32.00" fill="#29235c">category_id &#160;&#160;&#160;</text>
<text text-anchor="start" x="361.52" y="-1949.16" font-family="Helvetica,sans-Serif" font-style="italic" font-size="32.00" fill="#29235c">INTEGER</text>
<polygon fill="none" stroke="#29235c" stroke-width="2" points="127.73,-1926.96 127.73,-2168.96 515.73,-2168.96 515.73,-1926.96 127.73,-1926.96"/>
</g>
<!-- ProductCategory&#45;&gt;Category -->
<!-- ProductCategory&#45;&gt;Category -->
<g id="edge12" class="edge">
<title>ProductCategory:e&#45;&gt;Category:w</title>
<path fill="none" stroke="#29235c" stroke-width="3" d="M515.73,-1957.96C637.25,-1957.96 644.84,-2071.26 759.9,-2077.68"/>
<polygon fill="#29235c" stroke="#29235c" stroke-width="3" points="760.15,-2081.19 770.24,-2077.96 760.34,-2074.19 760.15,-2081.19"/>
<text text-anchor="middle" x="776.46" y="-2087.56" font-family="Helvetica,sans-Serif" font-size="32.00" fill="#29235c">*</text>
<text text-anchor="middle" x="506.84" y="-1967.56" font-family="Helvetica,sans-Serif" font-size="32.00" fill="#29235c">1</text>
</g>
<!-- ProductCategory&#45;&gt;Product -->
<!-- ProductCategory&#45;&gt;Product -->
<g id="edge14" class="edge">
<title>ProductCategory:e&#45;&gt;Product:w</title>
<path fill="none" stroke="#29235c" stroke-width="3" d="M515.73,-2017.96C603.64,-2017.96 609.33,-1947.97 643.47,-1866.96 708.65,-1712.26 637.08,-1653.4 679.47,-1490.96 703.84,-1397.56 672.54,-1292.62 760.18,-1285.36"/>
<polygon fill="#29235c" stroke="#29235c" stroke-width="3" points="760.39,-1288.85 770.24,-1284.96 760.11,-1281.86 760.39,-1288.85"/>
<text text-anchor="middle" x="764.02" y="-1294.56" font-family="Helvetica,sans-Serif" font-size="32.00" fill="#29235c">*</text>
<text text-anchor="middle" x="506.84" y="-2027.56" font-family="Helvetica,sans-Serif" font-size="32.00" fill="#29235c">1</text>
</g>
<!-- ProductSupplier -->
<g id="ProductSupplier" class="node">
<title>ProductSupplier</title>
<ellipse fill="none" stroke="black" stroke-width="0" cx="321.73" cy="-214.96" rx="267.07" ry="214.92"/>
<polygon fill="#1d71b8" stroke="transparent" points="134.73,-304.96 134.73,-364.96 508.73,-364.96 508.73,-304.96 134.73,-304.96"/>
<polygon fill="none" stroke="#29235c" points="134.73,-304.96 134.73,-364.96 508.73,-364.96 508.73,-304.96 134.73,-304.96"/>
<text text-anchor="start" x="145.68" y="-326.16" font-family="Helvetica,sans-Serif" font-weight="bold" font-size="32.00" fill="#ffffff"> &#160;&#160;&#160;&#160;&#160;&#160;ProductSupplier &#160;&#160;&#160;&#160;&#160;&#160;</text>
<polygon fill="#e7e2dd" stroke="transparent" points="134.73,-244.96 134.73,-304.96 508.73,-304.96 508.73,-244.96 134.73,-244.96"/>
<polygon fill="none" stroke="#29235c" points="134.73,-244.96 134.73,-304.96 508.73,-304.96 508.73,-244.96 134.73,-244.96"/>
<text text-anchor="start" x="145.73" y="-266.16" font-family="Helvetica,sans-Serif" font-weight="bold" font-size="32.00" fill="#29235c">id</text>
<text text-anchor="start" x="170.62" y="-266.16" font-family="Helvetica,sans-Serif" font-size="32.00" fill="#29235c"> &#160;&#160;&#160;</text>
<text text-anchor="start" x="355.52" y="-266.16" font-family="Helvetica,sans-Serif" font-style="italic" font-size="32.00" fill="#29235c">INTEGER</text>
<polygon fill="#e7e2dd" stroke="transparent" points="134.73,-184.96 134.73,-244.96 508.73,-244.96 508.73,-184.96 134.73,-184.96"/>
<polygon fill="none" stroke="#29235c" points="134.73,-184.96 134.73,-244.96 508.73,-244.96 508.73,-184.96 134.73,-184.96"/>
<text text-anchor="start" x="145.73" y="-205.16" font-family="Helvetica,sans-Serif" font-size="32.00" fill="#29235c">product_id &#160;&#160;&#160;</text>
<text text-anchor="start" x="355.52" y="-206.16" font-family="Helvetica,sans-Serif" font-style="italic" font-size="32.00" fill="#29235c">INTEGER</text>
<polygon fill="#e7e2dd" stroke="transparent" points="134.73,-124.96 134.73,-184.96 508.73,-184.96 508.73,-124.96 134.73,-124.96"/>
<polygon fill="none" stroke="#29235c" points="134.73,-124.96 134.73,-184.96 508.73,-184.96 508.73,-124.96 134.73,-124.96"/>
<text text-anchor="start" x="145.73" y="-145.16" font-family="Helvetica,sans-Serif" font-size="32.00" fill="#29235c">supplier_id &#160;&#160;&#160;</text>
<text text-anchor="start" x="355.52" y="-146.16" font-family="Helvetica,sans-Serif" font-style="italic" font-size="32.00" fill="#29235c">INTEGER</text>
<polygon fill="#e7e2dd" stroke="transparent" points="134.73,-64.96 134.73,-124.96 508.73,-124.96 508.73,-64.96 134.73,-64.96"/>
<polygon fill="none" stroke="#29235c" points="134.73,-64.96 134.73,-124.96 508.73,-124.96 508.73,-64.96 134.73,-64.96"/>
<text text-anchor="start" x="145.73" y="-85.16" font-family="Helvetica,sans-Serif" font-size="32.00" fill="#29235c">supply_price &#160;&#160;&#160;</text>
<text text-anchor="start" x="394.61" y="-86.16" font-family="Helvetica,sans-Serif" font-style="italic" font-size="32.00" fill="#29235c">FLOAT</text>
<polygon fill="none" stroke="#29235c" stroke-width="2" points="133.73,-63.96 133.73,-365.96 509.73,-365.96 509.73,-63.96 133.73,-63.96"/>
</g>
<!-- ProductSupplier&#45;&gt;Product -->
<!-- ProductSupplier&#45;&gt;Product -->
<g id="edge16" class="edge">
<title>ProductSupplier:e&#45;&gt;Product:w</title>
<path fill="none" stroke="#29235c" stroke-width="3" d="M509.73,-214.96C625.68,-214.96 608.68,-328.35 643.47,-438.96 699.47,-617.03 584.43,-1261.1 760.24,-1284.32"/>
<polygon fill="#29235c" stroke="#29235c" stroke-width="3" points="760.03,-1287.81 770.24,-1284.96 760.48,-1280.83 760.03,-1287.81"/>
<text text-anchor="middle" x="764.02" y="-1256.16" font-family="Helvetica,sans-Serif" font-size="32.00" fill="#29235c">*</text>
<text text-anchor="middle" x="500.84" y="-224.56" font-family="Helvetica,sans-Serif" font-size="32.00" fill="#29235c">1</text>
</g>
<!-- Supplier -->
<g id="Supplier" class="node">
<title>Supplier</title>
<ellipse fill="none" stroke="black" stroke-width="0" cx="955.24" cy="-244.96" rx="275.54" ry="172.57"/>
<polygon fill="#1d71b8" stroke="transparent" points="762.24,-304.96 762.24,-364.96 1148.24,-364.96 1148.24,-304.96 762.24,-304.96"/>
<polygon fill="none" stroke="#29235c" points="762.24,-304.96 762.24,-364.96 1148.24,-364.96 1148.24,-304.96 762.24,-304.96"/>
<text text-anchor="start" x="834.31" y="-326.16" font-family="Helvetica,sans-Serif" font-weight="bold" font-size="32.00" fill="#ffffff"> &#160;&#160;&#160;&#160;&#160;&#160;Supplier &#160;&#160;&#160;&#160;&#160;&#160;</text>
<polygon fill="#e7e2dd" stroke="transparent" points="762.24,-244.96 762.24,-304.96 1148.24,-304.96 1148.24,-244.96 762.24,-244.96"/>
<polygon fill="none" stroke="#29235c" points="762.24,-244.96 762.24,-304.96 1148.24,-304.96 1148.24,-244.96 762.24,-244.96"/>
<text text-anchor="start" x="773.24" y="-266.16" font-family="Helvetica,sans-Serif" font-weight="bold" font-size="32.00" fill="#29235c">id</text>
<text text-anchor="start" x="798.13" y="-266.16" font-family="Helvetica,sans-Serif" font-size="32.00" fill="#29235c"> &#160;&#160;&#160;</text>
<text text-anchor="start" x="995.02" y="-266.16" font-family="Helvetica,sans-Serif" font-style="italic" font-size="32.00" fill="#29235c">INTEGER</text>
<polygon fill="#e7e2dd" stroke="transparent" points="762.24,-184.96 762.24,-244.96 1148.24,-244.96 1148.24,-184.96 762.24,-184.96"/>
<polygon fill="none" stroke="#29235c" points="762.24,-184.96 762.24,-244.96 1148.24,-244.96 1148.24,-184.96 762.24,-184.96"/>
<text text-anchor="start" x="773.24" y="-205.16" font-family="Helvetica,sans-Serif" font-size="32.00" fill="#29235c">name &#160;&#160;&#160;</text>
<text text-anchor="start" x="980.81" y="-206.16" font-family="Helvetica,sans-Serif" font-style="italic" font-size="32.00" fill="#29235c">VARCHAR</text>
<polygon fill="#e7e2dd" stroke="transparent" points="762.24,-124.96 762.24,-184.96 1148.24,-184.96 1148.24,-124.96 762.24,-124.96"/>
<polygon fill="none" stroke="#29235c" points="762.24,-124.96 762.24,-184.96 1148.24,-184.96 1148.24,-124.96 762.24,-124.96"/>
<text text-anchor="start" x="773.2" y="-145.16" font-family="Helvetica,sans-Serif" font-size="32.00" fill="#29235c">contact_info &#160;&#160;&#160;</text>
<text text-anchor="start" x="981.03" y="-146.16" font-family="Helvetica,sans-Serif" font-style="italic" font-size="32.00" fill="#29235c">VARCHAR</text>
<polygon fill="none" stroke="#29235c" stroke-width="2" points="761.24,-123.96 761.24,-365.96 1149.24,-365.96 1149.24,-123.96 761.24,-123.96"/>
</g>
<!-- ProductSupplier&#45;&gt;Supplier -->
<!-- ProductSupplier&#45;&gt;Supplier -->
<g id="edge18" class="edge">
<title>ProductSupplier:e&#45;&gt;Supplier:w</title>
<path fill="none" stroke="#29235c" stroke-width="3" d="M509.73,-154.96C630.08,-154.96 637.08,-268.26 751,-274.68"/>
<polygon fill="#29235c" stroke="#29235c" stroke-width="3" points="751.15,-278.18 761.24,-274.96 751.34,-271.19 751.15,-278.18"/>
<text text-anchor="middle" x="767.46" y="-284.56" font-family="Helvetica,sans-Serif" font-size="32.00" fill="#29235c">*</text>
<text text-anchor="middle" x="500.84" y="-164.56" font-family="Helvetica,sans-Serif" font-size="32.00" fill="#29235c">1</text>
</g>
<!-- Shipment -->
<g id="Shipment" class="node">
<title>Shipment</title>
<ellipse fill="none" stroke="black" stroke-width="0" cx="321.73" cy="-662.96" rx="321.97" ry="214.92"/>
<polygon fill="#1d71b8" stroke="transparent" points="96.73,-752.96 96.73,-812.96 547.73,-812.96 547.73,-752.96 96.73,-752.96"/>
<polygon fill="none" stroke="#29235c" points="96.73,-752.96 96.73,-812.96 547.73,-812.96 547.73,-752.96 96.73,-752.96"/>
<text text-anchor="start" x="192.41" y="-774.16" font-family="Helvetica,sans-Serif" font-weight="bold" font-size="32.00" fill="#ffffff"> &#160;&#160;&#160;&#160;&#160;&#160;Shipment &#160;&#160;&#160;&#160;&#160;&#160;</text>
<polygon fill="#e7e2dd" stroke="transparent" points="96.73,-692.96 96.73,-752.96 547.73,-752.96 547.73,-692.96 96.73,-692.96"/>
<polygon fill="none" stroke="#29235c" points="96.73,-692.96 96.73,-752.96 547.73,-752.96 547.73,-692.96 96.73,-692.96"/>
<text text-anchor="start" x="107.73" y="-714.16" font-family="Helvetica,sans-Serif" font-weight="bold" font-size="32.00" fill="#29235c">id</text>
<text text-anchor="start" x="132.62" y="-714.16" font-family="Helvetica,sans-Serif" font-size="32.00" fill="#29235c"> &#160;&#160;&#160;</text>
<text text-anchor="start" x="394.52" y="-714.16" font-family="Helvetica,sans-Serif" font-style="italic" font-size="32.00" fill="#29235c">INTEGER</text>
<polygon fill="#e7e2dd" stroke="transparent" points="96.73,-632.96 96.73,-692.96 547.73,-692.96 547.73,-632.96 96.73,-632.96"/>
<polygon fill="none" stroke="#29235c" points="96.73,-632.96 96.73,-692.96 547.73,-692.96 547.73,-632.96 96.73,-632.96"/>
<text text-anchor="start" x="107.73" y="-653.16" font-family="Helvetica,sans-Serif" font-size="32.00" fill="#29235c">order_id &#160;&#160;&#160;</text>
<text text-anchor="start" x="394.52" y="-654.16" font-family="Helvetica,sans-Serif" font-style="italic" font-size="32.00" fill="#29235c">INTEGER</text>
<polygon fill="#e7e2dd" stroke="transparent" points="96.73,-572.96 96.73,-632.96 547.73,-632.96 547.73,-572.96 96.73,-572.96"/>
<polygon fill="none" stroke="#29235c" points="96.73,-572.96 96.73,-632.96 547.73,-632.96 547.73,-572.96 96.73,-572.96"/>
<text text-anchor="start" x="107.73" y="-593.16" font-family="Helvetica,sans-Serif" font-size="32.00" fill="#29235c">shipment_date &#160;&#160;&#160;</text>
<text text-anchor="start" x="374.97" y="-594.16" font-family="Helvetica,sans-Serif" font-style="italic" font-size="32.00" fill="#29235c">DATETIME</text>
<polygon fill="#e7e2dd" stroke="transparent" points="96.73,-512.96 96.73,-572.96 547.73,-572.96 547.73,-512.96 96.73,-512.96"/>
<polygon fill="none" stroke="#29235c" points="96.73,-512.96 96.73,-572.96 547.73,-572.96 547.73,-512.96 96.73,-512.96"/>
<text text-anchor="start" x="107.32" y="-533.16" font-family="Helvetica,sans-Serif" font-size="32.00" fill="#29235c">tracking_number &#160;&#160;&#160;</text>
<text text-anchor="start" x="380.52" y="-534.16" font-family="Helvetica,sans-Serif" font-style="italic" font-size="32.00" fill="#29235c">VARCHAR</text>
<polygon fill="none" stroke="#29235c" stroke-width="2" points="95.23,-511.96 95.23,-813.96 548.23,-813.96 548.23,-511.96 95.23,-511.96"/>
</g>
<!-- Shipment&#45;&gt;Order -->
<!-- Shipment&#45;&gt;Order -->
<g id="edge20" class="edge">
<title>Shipment:e&#45;&gt;Order:w</title>
<path fill="none" stroke="#29235c" stroke-width="3" d="M548.73,-662.96C655.83,-662.96 657.68,-772.76 758.2,-779.62"/>
<polygon fill="#29235c" stroke="#29235c" stroke-width="3" points="758.13,-783.12 768.24,-779.96 758.36,-776.13 758.13,-783.12"/>
<text text-anchor="middle" x="774.46" y="-751.16" font-family="Helvetica,sans-Serif" font-size="32.00" fill="#29235c">*</text>
<text text-anchor="middle" x="539.84" y="-672.56" font-family="Helvetica,sans-Serif" font-size="32.00" fill="#29235c">1</text>
</g>
</g>
</svg>
